<svg xmlns:svg="http://www.w3.org/2000/svg" xmlns="http://www.w3.org/2000/svg" viewbox="0 0 90 57" width="90" height="57" version="1.1"><path fill="white" d="M31.8 25C31 24.6 30 24.1 28.2 24.1c-1.8 0-2.7 0.5-3.6 0.9-0.8 0.4-1.5 0.7-2.9 0.7-1.4 0-2.1-0.3-2.9-0.7-0.8-0.4-1.8-0.9-3.6-0.9-1.8 0-2.7 0.5-3.6 0.9-0.8 0.4-1.5 0.7-2.9 0.7C7.3 25.7 6.6 25.4 5.8 25 5.3 24.8 4.8 24.5 4.1 24.3l-0.4 1.5c0.5 0.1 0.9 0.3 1.4 0.6 0.8 0.4 1.8 0.9 3.6 0.9 1.8 0 2.7-0.5 3.6-0.9 0.8-0.4 1.5-0.7 2.9-0.7 1.4 0 2.1 0.3 2.9 0.7 0.8 0.4 1.8 0.9 3.6 0.9 1.8 0 2.7-0.5 3.6-0.9 0.8-0.4 1.5-0.7 2.9-0.7 1.4 0 2.1 0.3 2.9 0.7 0 0 0.1 0 0.1 0l0.9-1.2C32 25.1 31.9 25 31.8 25ZM36.4 18.3l-4.9 0-1.6-6.6c-0.1-0.3-0.2-0.4-0.5-0.4l-2.6 0L26 8.9C25.9 8.7 25.8 8.6 25.6 8.6c0 0-0.1 0-0.1 0l-3.7 1.3c-0.4 0.2-0.5 0.3-0.5 0.8l0 2.9-11.8 0C9.2 13.6 9 13.8 9 14.1l-1 4.2-1.6 0c-0.3 0-0.5 0.2-0.5 0.4L4.6 23c0.9 0.2 1.5 0.5 2 0.8 0.7 0.4 1.1 0.6 2.1 0.6 1 0 1.4-0.2 2.1-0.6 0.9-0.5 2.1-1.1 4.3-1.1 2.2 0 3.4 0.6 4.3 1.1 0.7 0.4 1.1 0.6 2.1 0.6 1 0 1.4-0.2 2.1-0.6 0.9-0.5 2.1-1.1 4.3-1.1 2.2 0 3.4 0.6 4.3 1.1 0.1 0.1 0.3 0.2 0.3 0.2l3.8-5.2c0 0 0.1-0.1 0.1-0.2 0.3-0.2 0.1-0.3 0-0.3zm-21.6 0-5.4 0 0.5-2.2 4.9 0 0 2.2zm6.4 0-5.4 0 0-2.2 5.4 0 0 2.2zm1.1 0 0-2.2 5.4 0 0.6 2.2-6 0z"/></svg>
