<svg version="1.1" xmlns="http://www.w3.org/2000/svg" viewBox="0 0 100 100"><path fill="%23ffffff" d="M84.4,71.2c-2.5-1.3-5.3-2.7-10.7-2.7s-8.2,1.5-10.7,2.7c-2.3,1.2-4.3,2.2-8.6,2.2s-6.3-1-8.6-2.2 c-2.5-1.3-5.3-2.7-10.7-2.7s-8.2,1.5-10.7,2.7c-2.3,1.2-4.3,2.2-8.6,2.2c-4.3,0-6.3-1-8.6-2.2c-1.4-0.7-2.9-1.5-5-2.1L1,73.5 c1.6,0.4,2.8,1,4.1,1.7c2.5,1.3,5.3,2.7,10.7,2.7s8.2-1.5,10.7-2.7c2.3-1.2,4.3-2.2,8.6-2.2c4.3,0,6.3,1,8.6,2.2 c2.5,1.3,5.3,2.7,10.7,2.7s8.2-1.5,10.7-2.7c2.3-1.2,4.3-2.2,8.6-2.2c4.3,0,6.3,1,8.6,2.2c0.1,0,0.2,0.1,0.2,0.1l2.7-3.7 C85,71.5,84.7,71.4,84.4,71.2 M98.1,51.1l-14.7,0l-4.9-19.9c-0.2-1-0.7-1.3-1.6-1.3h-7.9l-1.8-7.1C67,22.3,66.5,22,66,22 c-0.1,0-0.2,0-0.3,0l-11.1,4c-1.2,0.5-1.6,1-1.6,2.3l0,8.7H17.8c-0.8,0-1.5,0.6-1.6,1.5l-2.9,12.6l-4.6,0c-0.8,0-1.4,0.5-1.6,1.2 l-3.6,13C6,66,7.9,67,9.4,67.8c2.1,1.1,3.3,1.7,6.4,1.7c3.1,0,4.3-0.6,6.4-1.7c2.7-1.4,6.4-3.3,12.9-3.3s10.2,1.9,12.9,3.3 c2.1,1.1,3.3,1.7,6.4,1.7c3.1,0,4.3-0.6,6.4-1.7c2.7-1.4,6.4-3.3,12.9-3.3s10.2,1.9,12.9,3.3c0.3,0.2,1,0.5,1,0.5l11.2-15.6 c0,0,0.2-0.3,0.2-0.6C99,51.5,98.6,51.1,98.1,51.1L98.1,51.1z M33.6,51.1h-16l1.5-6.7h14.5V51.1L33.6,51.1z M36.8,44.4h16.1v6.7 H36.8V44.4z M56.1,51.1v-6.7h16.1l1.7,6.7H56.1L56.1,51.1z"/></svg>