<svg viewBox="0 0 99 56" version="1.1" xmlns="http://www.w3.org/2000/svg"><path fill="%23fff" d="M83.4,49.2 C80.9,47.9 78.1,46.5 72.7,46.5 C67.3,46.5 64.5,48 62,49.2 C59.7,50.4 57.7,51.4 53.4,51.4 C49.1,51.4 47.1,50.4 44.8,49.2 C42.3,47.9 39.5,46.5 34.1,46.5 C28.7,46.5 25.9,48 23.4,49.2 C21.1,50.4 19.1,51.4 14.8,51.4 C10.5,51.4 8.5,50.4 6.2,49.2 C4.8,48.5 3.3,47.7 1.2,47.1 L0,51.5 C1.6,51.9 2.8,52.5 4.1,53.2 C6.6,54.5 9.4,55.9 14.8,55.9 C20.2,55.9 23,54.4 25.5,53.2 C27.8,52 29.8,51 34.1,51 C38.4,51 40.4,52 42.7,53.2 C45.2,54.5 48,55.9 53.4,55.9 C58.8,55.9 61.6,54.4 64.1,53.2 C66.4,52 68.4,51 72.7,51 C77,51 79,52 81.3,53.2 C81.4,53.2 81.5,53.3 81.5,53.3 L84.2,49.6 C84,49.5 83.7,49.4 83.4,49.2 L83.4,49.2 Z M97.1,29.1 L82.4,29.1 L77.5,9.2 C77.3,8.2 76.8,7.9 75.9,7.9 L68,7.9 L66.2,0.8 C66,0.3 65.5,0 65,0 L64.7,0 L53.6,4 C52.4,4.5 52,5 52,6.3 L52,15 L16.8,15 C16,15 15.3,15.6 15.2,16.5 L12.3,29.1 L7.7,29.1 C6.9,29.1 6.3,29.6 6.1,30.3 L2.5,43.3 C5,44 6.9,45 8.4,45.8 C10.5,46.9 11.7,47.5 14.8,47.5 C17.9,47.5 19.1,46.9 21.2,45.8 C23.9,44.4 27.6,42.5 34.1,42.5 C40.6,42.5 44.3,44.4 47,45.8 C49.1,46.9 50.3,47.5 53.4,47.5 C56.5,47.5 57.7,46.9 59.8,45.8 C62.5,44.4 66.2,42.5 72.7,42.5 C79.2,42.5 82.9,44.4 85.6,45.8 C85.9,46 86.6,46.3 86.6,46.3 L97.8,30.7 C97.8,30.7 98,30.4 98,30.1 C98,29.5 97.6,29.1 97.1,29.1 L97.1,29.1 L97.1,29.1 Z M32.6,29.1 L16.6,29.1 L18.1,22.4 L32.6,22.4 L32.6,29.1 L32.6,29.1 Z M35.8,22.4 L51.9,22.4 L51.9,29.1 L35.8,29.1 L35.8,22.4 L35.8,22.4 Z M55.1,29.1 L55.1,22.4 L71.2,22.4 L72.9,29.1 L55.1,29.1 L55.1,29.1 Z"></path></svg>