<svg version="1.1" xmlns="http://www.w3.org/2000/svg" viewBox="0 0 100 50"><path fill="%23ffffff" d="M36.5,41c0,4.4-3.6,8-8.1,8c-4.5,0-8.1-3.6-8.1-8c0-4.4,3.6-8,8.1-8C32.8,33,36.5,36.6,36.5,41z M99,3v37.3 c0,1.1-0.9,1.7-2,1.7H82.2c0,0,0.1-0.7,0.1-1.1c0-5.7-4.7-10.3-10.6-10.3c-5.8,0-10.6,4.6-10.6,10.3c0,0.4,0,1.1,0.1,1.1H38.8 c0,0,0.1-0.7,0.1-1.1c0-5.7-4.7-10.3-10.6-10.3c-5.8,0-10.6,4.6-10.6,10.3c0,0.4,0,1.1,0.1,1.1H3c-1.1,0-2-0.7-2-1.7V3 c0-1.1,0.9-2,2-2h94C98.1,1,99,1.9,99,3z M25,9H5v16h20V9z M48,9H29v16h19V9z M71,9H52v16h19V9z M95,9H75v16h20V9z M71.7,33 c-4.5,0-8.1,3.6-8.1,8c0,4.4,3.6,8,8.1,8c4.5,0,8.1-3.6,8.1-8C79.8,36.6,76.2,33,71.7,33z"/></svg>