<svg version="1.1" xmlns="http://www.w3.org/2000/svg" viewBox="0 0 100 75" enable-background="new 0 0 100 75" xml:space="preserve"><path fill="%23ffffff" d="M3.4,69.6h93.1V74H3.4V69.6z M98.8,50l-5.2-23.4h0l-0.4-2c-0.2-0.9-1.1-1.7-2.1-1.7H51.8l9.3-8.2 c0.5-0.5,0.8-1.1,0.8-1.8c0-0.7-0.3-1.3-0.9-1.8L48.6,1h-7.5l14.8,11.9l-11.2,9.9H8.9c-1,0-1.9,0.8-2.1,1.7L1.4,48.7v0L1.2,50 c-0.5,2.2,0.1,5.5,1.4,7.3l3.7,5.6H19v1.3c0,1.9,1.6,3.4,3.4,3.4h10.8c1.9,0,3.5-1.6,3.5-3.4v-1.3h26.5v1.3c0,1.9,1.6,3.4,3.5,3.4 h10.8c1.9,0,3.4-1.6,3.4-3.4v-1.3h12.8l3.7-5.6C98.7,55.5,99.3,52.2,98.8,50L98.8,50z M25.6,46.5H6.3l3.5-15.6h15.8V46.5L25.6,46.5z M29,30.9h19.3v15.6H29V30.9z M51.8,30.9H71v15.6H51.8V30.9z M74.5,46.5V30.9h15.8l3.5,15.6H74.5L74.5,46.5z"/></svg>